<mxfile host="app.diagrams.net" modified="2023-10-09T05:26:16.081Z" agent="Mozilla/5.0 (Macintosh; Intel Mac OS X 10_15_7) AppleWebKit/537.36 (KHTML, like Gecko) Chrome/117.0.0.0 Safari/537.36" etag="ZnVSPihoFb8XcX6t9z7i" version="22.0.4" type="github">
  <diagram id="R2lEEEUBdFMjLlhIrx00" name="Page-1">
    <mxGraphModel dx="1004" dy="616" grid="1" gridSize="10" guides="1" tooltips="1" connect="1" arrows="1" fold="1" page="1" pageScale="1" pageWidth="850" pageHeight="1100" math="0" shadow="0" extFonts="Permanent Marker^https://fonts.googleapis.com/css?family=Permanent+Marker">
      <root>
        <mxCell id="0" />
        <mxCell id="1" parent="0" />
        <mxCell id="nr4AJL8xbhF4gBbx9YeW-9" value="Raw" style="shape=table;startSize=30;container=1;collapsible=1;childLayout=tableLayout;fixedRows=1;rowLines=0;fontStyle=1;align=center;resizeLast=1;html=1;" vertex="1" parent="1">
          <mxGeometry x="60" y="120" width="180" height="270" as="geometry">
            <mxRectangle x="60" y="80" width="70" height="30" as="alternateBounds" />
          </mxGeometry>
        </mxCell>
        <mxCell id="nr4AJL8xbhF4gBbx9YeW-10" value="" style="shape=tableRow;horizontal=0;startSize=0;swimlaneHead=0;swimlaneBody=0;fillColor=none;collapsible=0;dropTarget=0;points=[[0,0.5],[1,0.5]];portConstraint=eastwest;top=0;left=0;right=0;bottom=1;" vertex="1" parent="nr4AJL8xbhF4gBbx9YeW-9">
          <mxGeometry y="30" width="180" height="30" as="geometry" />
        </mxCell>
        <mxCell id="nr4AJL8xbhF4gBbx9YeW-11" value="PK" style="shape=partialRectangle;connectable=0;fillColor=none;top=0;left=0;bottom=0;right=0;fontStyle=1;overflow=hidden;whiteSpace=wrap;html=1;" vertex="1" parent="nr4AJL8xbhF4gBbx9YeW-10">
          <mxGeometry width="29.999999999999943" height="30" as="geometry">
            <mxRectangle width="29.999999999999943" height="30" as="alternateBounds" />
          </mxGeometry>
        </mxCell>
        <mxCell id="nr4AJL8xbhF4gBbx9YeW-12" value="InvoiceNo" style="shape=partialRectangle;connectable=0;fillColor=none;top=0;left=0;bottom=0;right=0;align=left;spacingLeft=6;fontStyle=5;overflow=hidden;whiteSpace=wrap;html=1;" vertex="1" parent="nr4AJL8xbhF4gBbx9YeW-10">
          <mxGeometry x="29.999999999999943" width="150.00000000000006" height="30" as="geometry">
            <mxRectangle width="150.00000000000006" height="30" as="alternateBounds" />
          </mxGeometry>
        </mxCell>
        <mxCell id="nr4AJL8xbhF4gBbx9YeW-13" value="" style="shape=tableRow;horizontal=0;startSize=0;swimlaneHead=0;swimlaneBody=0;fillColor=none;collapsible=0;dropTarget=0;points=[[0,0.5],[1,0.5]];portConstraint=eastwest;top=0;left=0;right=0;bottom=0;" vertex="1" parent="nr4AJL8xbhF4gBbx9YeW-9">
          <mxGeometry y="60" width="180" height="30" as="geometry" />
        </mxCell>
        <mxCell id="nr4AJL8xbhF4gBbx9YeW-14" value="" style="shape=partialRectangle;connectable=0;fillColor=none;top=0;left=0;bottom=0;right=0;editable=1;overflow=hidden;whiteSpace=wrap;html=1;" vertex="1" parent="nr4AJL8xbhF4gBbx9YeW-13">
          <mxGeometry width="29.999999999999943" height="30" as="geometry">
            <mxRectangle width="29.999999999999943" height="30" as="alternateBounds" />
          </mxGeometry>
        </mxCell>
        <mxCell id="nr4AJL8xbhF4gBbx9YeW-15" value="StockCode" style="shape=partialRectangle;connectable=0;fillColor=none;top=0;left=0;bottom=0;right=0;align=left;spacingLeft=6;overflow=hidden;whiteSpace=wrap;html=1;" vertex="1" parent="nr4AJL8xbhF4gBbx9YeW-13">
          <mxGeometry x="29.999999999999943" width="150.00000000000006" height="30" as="geometry">
            <mxRectangle width="150.00000000000006" height="30" as="alternateBounds" />
          </mxGeometry>
        </mxCell>
        <mxCell id="nr4AJL8xbhF4gBbx9YeW-16" value="" style="shape=tableRow;horizontal=0;startSize=0;swimlaneHead=0;swimlaneBody=0;fillColor=none;collapsible=0;dropTarget=0;points=[[0,0.5],[1,0.5]];portConstraint=eastwest;top=0;left=0;right=0;bottom=0;" vertex="1" parent="nr4AJL8xbhF4gBbx9YeW-9">
          <mxGeometry y="90" width="180" height="30" as="geometry" />
        </mxCell>
        <mxCell id="nr4AJL8xbhF4gBbx9YeW-17" value="" style="shape=partialRectangle;connectable=0;fillColor=none;top=0;left=0;bottom=0;right=0;editable=1;overflow=hidden;whiteSpace=wrap;html=1;" vertex="1" parent="nr4AJL8xbhF4gBbx9YeW-16">
          <mxGeometry width="29.999999999999943" height="30" as="geometry">
            <mxRectangle width="29.999999999999943" height="30" as="alternateBounds" />
          </mxGeometry>
        </mxCell>
        <mxCell id="nr4AJL8xbhF4gBbx9YeW-18" value="Description" style="shape=partialRectangle;connectable=0;fillColor=none;top=0;left=0;bottom=0;right=0;align=left;spacingLeft=6;overflow=hidden;whiteSpace=wrap;html=1;" vertex="1" parent="nr4AJL8xbhF4gBbx9YeW-16">
          <mxGeometry x="29.999999999999943" width="150.00000000000006" height="30" as="geometry">
            <mxRectangle width="150.00000000000006" height="30" as="alternateBounds" />
          </mxGeometry>
        </mxCell>
        <mxCell id="nr4AJL8xbhF4gBbx9YeW-19" value="" style="shape=tableRow;horizontal=0;startSize=0;swimlaneHead=0;swimlaneBody=0;fillColor=none;collapsible=0;dropTarget=0;points=[[0,0.5],[1,0.5]];portConstraint=eastwest;top=0;left=0;right=0;bottom=0;" vertex="1" parent="nr4AJL8xbhF4gBbx9YeW-9">
          <mxGeometry y="120" width="180" height="30" as="geometry" />
        </mxCell>
        <mxCell id="nr4AJL8xbhF4gBbx9YeW-20" value="" style="shape=partialRectangle;connectable=0;fillColor=none;top=0;left=0;bottom=0;right=0;editable=1;overflow=hidden;whiteSpace=wrap;html=1;" vertex="1" parent="nr4AJL8xbhF4gBbx9YeW-19">
          <mxGeometry width="29.999999999999943" height="30" as="geometry">
            <mxRectangle width="29.999999999999943" height="30" as="alternateBounds" />
          </mxGeometry>
        </mxCell>
        <mxCell id="nr4AJL8xbhF4gBbx9YeW-21" value="Quantity" style="shape=partialRectangle;connectable=0;fillColor=none;top=0;left=0;bottom=0;right=0;align=left;spacingLeft=6;overflow=hidden;whiteSpace=wrap;html=1;" vertex="1" parent="nr4AJL8xbhF4gBbx9YeW-19">
          <mxGeometry x="29.999999999999943" width="150.00000000000006" height="30" as="geometry">
            <mxRectangle width="150.00000000000006" height="30" as="alternateBounds" />
          </mxGeometry>
        </mxCell>
        <mxCell id="nr4AJL8xbhF4gBbx9YeW-33" value="" style="shape=tableRow;horizontal=0;startSize=0;swimlaneHead=0;swimlaneBody=0;fillColor=none;collapsible=0;dropTarget=0;points=[[0,0.5],[1,0.5]];portConstraint=eastwest;top=0;left=0;right=0;bottom=0;" vertex="1" parent="nr4AJL8xbhF4gBbx9YeW-9">
          <mxGeometry y="150" width="180" height="30" as="geometry" />
        </mxCell>
        <mxCell id="nr4AJL8xbhF4gBbx9YeW-34" value="" style="shape=partialRectangle;connectable=0;fillColor=none;top=0;left=0;bottom=0;right=0;editable=1;overflow=hidden;whiteSpace=wrap;html=1;" vertex="1" parent="nr4AJL8xbhF4gBbx9YeW-33">
          <mxGeometry width="29.999999999999943" height="30" as="geometry">
            <mxRectangle width="29.999999999999943" height="30" as="alternateBounds" />
          </mxGeometry>
        </mxCell>
        <mxCell id="nr4AJL8xbhF4gBbx9YeW-35" value="InvoiceDate" style="shape=partialRectangle;connectable=0;fillColor=none;top=0;left=0;bottom=0;right=0;align=left;spacingLeft=6;overflow=hidden;whiteSpace=wrap;html=1;" vertex="1" parent="nr4AJL8xbhF4gBbx9YeW-33">
          <mxGeometry x="29.999999999999943" width="150.00000000000006" height="30" as="geometry">
            <mxRectangle width="150.00000000000006" height="30" as="alternateBounds" />
          </mxGeometry>
        </mxCell>
        <mxCell id="nr4AJL8xbhF4gBbx9YeW-36" value="" style="shape=tableRow;horizontal=0;startSize=0;swimlaneHead=0;swimlaneBody=0;fillColor=none;collapsible=0;dropTarget=0;points=[[0,0.5],[1,0.5]];portConstraint=eastwest;top=0;left=0;right=0;bottom=0;" vertex="1" parent="nr4AJL8xbhF4gBbx9YeW-9">
          <mxGeometry y="180" width="180" height="30" as="geometry" />
        </mxCell>
        <mxCell id="nr4AJL8xbhF4gBbx9YeW-37" value="" style="shape=partialRectangle;connectable=0;fillColor=none;top=0;left=0;bottom=0;right=0;editable=1;overflow=hidden;whiteSpace=wrap;html=1;" vertex="1" parent="nr4AJL8xbhF4gBbx9YeW-36">
          <mxGeometry width="29.999999999999943" height="30" as="geometry">
            <mxRectangle width="29.999999999999943" height="30" as="alternateBounds" />
          </mxGeometry>
        </mxCell>
        <mxCell id="nr4AJL8xbhF4gBbx9YeW-38" value="UnitPrice" style="shape=partialRectangle;connectable=0;fillColor=none;top=0;left=0;bottom=0;right=0;align=left;spacingLeft=6;overflow=hidden;whiteSpace=wrap;html=1;" vertex="1" parent="nr4AJL8xbhF4gBbx9YeW-36">
          <mxGeometry x="29.999999999999943" width="150.00000000000006" height="30" as="geometry">
            <mxRectangle width="150.00000000000006" height="30" as="alternateBounds" />
          </mxGeometry>
        </mxCell>
        <mxCell id="nr4AJL8xbhF4gBbx9YeW-42" value="" style="shape=tableRow;horizontal=0;startSize=0;swimlaneHead=0;swimlaneBody=0;fillColor=none;collapsible=0;dropTarget=0;points=[[0,0.5],[1,0.5]];portConstraint=eastwest;top=0;left=0;right=0;bottom=0;" vertex="1" parent="nr4AJL8xbhF4gBbx9YeW-9">
          <mxGeometry y="210" width="180" height="30" as="geometry" />
        </mxCell>
        <mxCell id="nr4AJL8xbhF4gBbx9YeW-43" value="" style="shape=partialRectangle;connectable=0;fillColor=none;top=0;left=0;bottom=0;right=0;editable=1;overflow=hidden;whiteSpace=wrap;html=1;" vertex="1" parent="nr4AJL8xbhF4gBbx9YeW-42">
          <mxGeometry width="29.999999999999943" height="30" as="geometry">
            <mxRectangle width="29.999999999999943" height="30" as="alternateBounds" />
          </mxGeometry>
        </mxCell>
        <mxCell id="nr4AJL8xbhF4gBbx9YeW-44" value="CustomerID" style="shape=partialRectangle;connectable=0;fillColor=none;top=0;left=0;bottom=0;right=0;align=left;spacingLeft=6;overflow=hidden;whiteSpace=wrap;html=1;" vertex="1" parent="nr4AJL8xbhF4gBbx9YeW-42">
          <mxGeometry x="29.999999999999943" width="150.00000000000006" height="30" as="geometry">
            <mxRectangle width="150.00000000000006" height="30" as="alternateBounds" />
          </mxGeometry>
        </mxCell>
        <mxCell id="nr4AJL8xbhF4gBbx9YeW-39" value="" style="shape=tableRow;horizontal=0;startSize=0;swimlaneHead=0;swimlaneBody=0;fillColor=none;collapsible=0;dropTarget=0;points=[[0,0.5],[1,0.5]];portConstraint=eastwest;top=0;left=0;right=0;bottom=0;" vertex="1" parent="nr4AJL8xbhF4gBbx9YeW-9">
          <mxGeometry y="240" width="180" height="30" as="geometry" />
        </mxCell>
        <mxCell id="nr4AJL8xbhF4gBbx9YeW-40" value="" style="shape=partialRectangle;connectable=0;fillColor=none;top=0;left=0;bottom=0;right=0;editable=1;overflow=hidden;whiteSpace=wrap;html=1;" vertex="1" parent="nr4AJL8xbhF4gBbx9YeW-39">
          <mxGeometry width="29.999999999999943" height="30" as="geometry">
            <mxRectangle width="29.999999999999943" height="30" as="alternateBounds" />
          </mxGeometry>
        </mxCell>
        <mxCell id="nr4AJL8xbhF4gBbx9YeW-41" value="Country" style="shape=partialRectangle;connectable=0;fillColor=none;top=0;left=0;bottom=0;right=0;align=left;spacingLeft=6;overflow=hidden;whiteSpace=wrap;html=1;" vertex="1" parent="nr4AJL8xbhF4gBbx9YeW-39">
          <mxGeometry x="29.999999999999943" width="150.00000000000006" height="30" as="geometry">
            <mxRectangle width="150.00000000000006" height="30" as="alternateBounds" />
          </mxGeometry>
        </mxCell>
        <mxCell id="nr4AJL8xbhF4gBbx9YeW-29" value="" style="shape=partialRectangle;connectable=0;fillColor=none;top=0;left=0;bottom=0;right=0;editable=1;overflow=hidden;whiteSpace=wrap;html=1;" vertex="1" parent="1">
          <mxGeometry x="69" y="212" width="29.999999999999943" height="30" as="geometry">
            <mxRectangle width="29.999999999999943" height="30" as="alternateBounds" />
          </mxGeometry>
        </mxCell>
        <mxCell id="nr4AJL8xbhF4gBbx9YeW-45" value="&lt;font style=&quot;font-size: 15px;&quot;&gt;Raw online retail data model from csv file&lt;/font&gt;" style="text;html=1;strokeColor=none;fillColor=none;align=left;verticalAlign=middle;whiteSpace=wrap;rounded=0;" vertex="1" parent="1">
          <mxGeometry x="60" y="40" width="180" height="80" as="geometry" />
        </mxCell>
      </root>
    </mxGraphModel>
  </diagram>
</mxfile>
